<svg xmlns="http://www.w3.org/2000/svg" xmlns:xlink="http://www.w3.org/1999/xlink" width="500" zoomAndPan="magnify" viewBox="0 0 375 374.999991" height="500" preserveAspectRatio="xMidYMid meet" version="1.0"><defs><g/><clipPath id="id1"><path d="M 8.929688 8.929688 L 365.929688 8.929688 L 365.929688 365.929688 L 8.929688 365.929688 Z M 8.929688 8.929688 " clip-rule="nonzero"/></clipPath></defs><path fill="#403d39" d="M 187.5 0 C 83.945312 0 0 83.945312 0 187.5 C 0 291.054688 83.945312 375 187.5 375 C 291.054688 375 375 291.054688 375 187.5 C 375 83.945312 291.054688 0 187.5 0 " fill-opacity="1" fill-rule="nonzero"/><g clip-path="url(#id1)"><path fill="#fffcf2" d="M 187.429688 8.929688 C 88.847656 8.929688 8.929688 88.847656 8.929688 187.429688 C 8.929688 286.011719 88.847656 365.929688 187.429688 365.929688 C 286.011719 365.929688 365.929688 286.011719 365.929688 187.429688 C 365.929688 88.847656 286.011719 8.929688 187.429688 8.929688 " fill-opacity="1" fill-rule="nonzero"/></g><g fill="#403d39" fill-opacity="1"><g transform="translate(37.502932, 251.456952)"><g><path d="M 70.921875 -117.3125 L 70.921875 -30.421875 C 70.921875 -25.492188 70.109375 -21.007812 68.484375 -16.96875 C 66.859375 -12.9375 64.5625 -9.519531 61.59375 -6.71875 C 58.625 -3.914062 55.066406 -1.757812 50.921875 -0.25 C 46.773438 1.257812 42.238281 2.015625 37.3125 2.015625 C 28.238281 2.015625 20.925781 -0.421875 15.375 -5.296875 C 9.832031 -10.171875 6.273438 -16.640625 4.703125 -24.703125 L 17.484375 -27.734375 C 18.597656 -22.691406 20.722656 -18.570312 23.859375 -15.375 C 27.003906 -12.1875 31.597656 -10.59375 37.640625 -10.59375 C 43.691406 -10.59375 48.398438 -12.441406 51.765625 -16.140625 C 55.128906 -19.835938 56.8125 -25.4375 56.8125 -32.9375 L 56.8125 -104.875 L 16.46875 -104.875 L 16.46875 -117.3125 Z M 70.921875 -117.3125 "/></g></g></g><g fill="#403d39" fill-opacity="1"><g transform="translate(123.212834, 251.456952)"><g><path d="M 89.078125 0 L 77.3125 -34.625 L 29.921875 -34.625 L 18.15625 0 L 3.859375 0 L 44.875 -117.3125 L 62.859375 -117.3125 L 103.859375 0 Z M 53.953125 -104.203125 L 53.109375 -104.203125 L 33.28125 -47.0625 L 73.78125 -47.0625 Z M 53.953125 -104.203125 "/></g></g></g><g fill="#403d39" fill-opacity="1"><g transform="translate(230.938421, 251.456952)"><g><path d="M 46.390625 -57.640625 L 29.75 -39.15625 L 29.75 0 L 15.625 0 L 15.625 -117.3125 L 29.75 -117.3125 L 29.75 -54.953125 L 30.25 -54.953125 L 47.0625 -75.296875 L 82.515625 -117.3125 L 99.828125 -117.3125 L 56.140625 -67.0625 L 102.859375 0 L 85.375 0 Z M 46.390625 -57.640625 "/></g></g></g></svg>