<?xml version="1.0" standalone="no"?>
<!DOCTYPE svg PUBLIC "-//W3C//DTD SVG 20010904//EN"
 "http://www.w3.org/TR/2001/REC-SVG-20010904/DTD/svg10.dtd">
<svg version="1.0" xmlns="http://www.w3.org/2000/svg"
 width="1280.000000pt" height="1210.000000pt" viewBox="0 0 1280.000000 1210.000000"
 preserveAspectRatio="xMidYMid meet">
<g transform="translate(0.000000,1210.000000) scale(0.100000,-0.100000)"
fill="#000000" stroke="none">
<path d="M6475 12089 c-423 -52 -666 -123 -997 -290 -250 -127 -489 -300 -683
-494 -379 -379 -574 -785 -649 -1355 -31 -231 -38 -354 -43 -808 -8 -672 12
-930 85 -1086 16 -35 65 -117 110 -182 79 -119 142 -232 142 -256 0 -33 54
-121 122 -201 121 -140 172 -257 228 -523 42 -197 90 -342 151 -459 74 -141
101 -254 103 -430 2 -234 -24 -279 -202 -354 -182 -77 -299 -159 -497 -351
-186 -179 -277 -246 -476 -346 -363 -182 -874 -331 -1909 -558 -534 -117 -859
-205 -972 -262 -25 -13 -56 -37 -67 -53 -56 -79 -158 -354 -236 -636 -59 -214
-72 -273 -150 -657 -37 -178 -82 -369 -101 -425 -112 -330 -420 -1932 -431
-2240 l-5 -123 6402 0 c6093 0 6402 1 6395 18 -4 9 -34 220 -66 467 -180 1388
-267 1843 -406 2118 -94 188 -138 334 -153 507 -19 215 -90 380 -230 532 -146
160 -461 354 -710 438 -69 23 -366 134 -660 247 -644 247 -829 316 -1043 387
-90 29 -181 63 -204 74 -101 52 -259 201 -420 397 -145 176 -274 294 -376 344
-153 75 -236 172 -294 341 -41 123 -57 246 -49 378 13 208 48 339 162 626 88
218 127 338 143 444 16 104 71 203 261 472 69 97 161 279 215 424 85 229 142
529 132 691 -8 113 -20 157 -58 199 -16 19 -35 51 -43 72 -30 88 -56 446 -56
790 0 415 -28 719 -81 876 -95 285 -350 560 -667 721 -133 68 -254 108 -447
147 -261 53 -432 122 -560 225 -125 101 -175 122 -364 150 -113 16 -234 18
-346 4z"/>
</g>
</svg>
